<svg version="1.1" id="Layer_1" xmlns="http://www.w3.org/2000/svg" xmlns:xlink="http://www.w3.org/1999/xlink" x="0px" y="0px"
	 width="100%" viewBox="0 0 352 352" enable-background="new 0 0 352 352" xml:space="preserve">
<path class="cat" fill="#000000" opacity="1.000000" stroke="none" 
	d="
M176.678925,140.902161 
	C149.639633,141.869553 125.525925,149.976318 104.616844,166.504486 
	C79.755142,186.157089 65.636765,212.385742 59.386642,243.107056 
	C56.926228,255.200775 55.885654,267.463257 56.362789,279.802490 
	C56.521233,283.900085 55.138317,285.279144 50.962975,285.279755 
	C36.505379,285.281769 36.304939,285.416718 36.803970,271.130280 
	C37.443562,252.819946 39.190918,234.614288 45.474312,217.224640 
	C47.963646,210.335251 45.891273,203.662338 45.278820,196.995132 
	C42.886623,170.953461 41.569393,144.927841 43.495762,118.788200 
	C44.341354,107.314049 45.696861,95.974167 49.645905,85.110718 
	C53.485596,74.548065 59.708946,71.793266 69.963173,76.457642 
	C90.290024,85.703781 107.481186,99.515533 122.506447,115.657356 
	C130.325363,124.057304 136.815338,127.323631 148.983795,124.253189 
	C174.796677,117.739899 201.122559,119.191818 226.814957,126.720879 
	C231.086197,127.972549 232.861282,125.855247 235.146698,123.403328 
	C251.004868,106.389664 268.303040,91.110420 288.545227,79.420563 
	C290.701935,78.175079 292.947693,77.058205 295.230896,76.062149 
	C303.088684,72.634125 308.817719,74.735016 312.465210,82.519463 
	C316.312073,90.729408 317.998169,99.543083 319.332672,108.440163 
	C322.436676,129.134262 321.545227,149.973114 321.117706,170.745026 
	C320.882568,182.170929 320.244232,193.669464 318.459137,205.029007 
	C316.884979,215.046051 322.055756,223.811356 323.881409,233.195236 
	C326.942810,248.931396 327.893890,264.805328 328.278625,280.763702 
	C328.355286,283.942963 327.173798,285.372650 323.910706,285.205658 
	C320.919556,285.052551 317.889954,284.933197 314.920776,285.231659 
	C310.176453,285.708557 308.436188,283.986420 308.608368,279.091949 
	C309.142517,263.906769 307.640137,248.900833 303.893158,234.124283 
	C291.449066,185.049561 252.383621,149.620056 202.464630,142.272919 
	C194.069656,141.037323 185.651093,140.095627 176.678925,140.902161 
z"/>
</svg>